<?xml version="1.0" standalone="no"?>
<!DOCTYPE svg PUBLIC "-//W3C//DTD SVG 20010904//EN"
 "http://www.w3.org/TR/2001/REC-SVG-20010904/DTD/svg10.dtd">
<svg version="1.0" xmlns="http://www.w3.org/2000/svg"
 width="376.000000pt" height="375.000000pt" viewBox="0 0 376.000000 375.000000"
 preserveAspectRatio="xMidYMid meet">

<g transform="translate(0.000000,375.000000) scale(0.100000,-0.100000)"
fill="#000000" stroke="none">
<path d="M467 3282 l-437 -437 0 -868 0 -867 540 0 540 0 2 -537 3 -538 865
-3 865 -2 437 437 438 438 0 867 0 868 -540 0 -540 0 0 540 0 540 -868 0 -867
0 -438 -438z m2093 -1407 l0 -685 -685 0 -685 0 0 685 0 685 685 0 685 0 0
-685z"/>
</g>
</svg>
